<?xml version="1.0" standalone="no"?>
<!DOCTYPE svg PUBLIC "-//W3C//DTD SVG 20010904//EN"
 "http://www.w3.org/TR/2001/REC-SVG-20010904/DTD/svg10.dtd">
<svg version="1.0" xmlns="http://www.w3.org/2000/svg"
 width="1050.000000pt" height="500.000000pt" viewBox="0 0 1050.000000 500.000000"
 preserveAspectRatio="xMidYMid meet">

<g transform="translate(0.000000,500.000000) scale(0.100000,-0.100000)"
fill="#000000" stroke="none">
<path d="M9593 3123 c4 -3 1 -13 -6 -22 -11 -14 -10 -14 5 -2 16 12 16 31 1
31 -4 0 -3 -3 0 -7z"/>
<path d="M520 2525 l0 -535 86 0 86 0 -3 443 c-4 414 -3 440 12 393 8 -28 87
-228 174 -443 l158 -393 61 0 61 0 169 428 c93 235 171 435 175 445 3 10 5
-183 3 -428 l-3 -445 86 0 85 0 0 535 0 535 -119 0 c-86 0 -120 -3 -124 -12
-3 -7 -74 -186 -159 -398 -86 -212 -158 -394 -162 -405 -6 -15 -15 1 -41 70
-19 50 -92 236 -163 415 l-128 325 -127 3 -127 3 0 -536z"/>
<path d="M8294 3041 c-54 -33 -64 -77 -64 -284 0 -219 -8 -246 -77 -261 l-43
-10 0 -46 c0 -45 1 -47 37 -56 70 -18 76 -38 80 -261 6 -277 18 -300 174 -310
l79 -6 0 46 c0 43 -2 47 -27 53 -54 12 -61 15 -69 32 -5 9 -11 105 -14 212 -6
219 -14 247 -79 273 l-34 14 41 23 c64 36 72 67 72 279 0 165 2 180 21 205 15
19 30 26 55 26 34 0 34 0 34 45 l0 45 -77 0 c-59 0 -86 -5 -109 -19z"/>
<path d="M10130 3016 c0 -44 1 -46 28 -46 69 0 80 -41 81 -280 1 -174 10 -204
72 -236 l32 -16 -32 -16 c-61 -29 -65 -45 -72 -269 -4 -178 -7 -205 -24 -223
-10 -11 -26 -20 -36 -20 -39 0 -49 -11 -49 -58 l0 -45 75 6 c87 6 128 27 152
77 14 28 18 73 23 241 6 231 9 242 76 255 33 6 34 8 34 53 l0 47 -42 10 c-63
14 -68 30 -68 231 0 204 -9 259 -51 299 -28 26 -38 29 -115 33 l-84 3 0 -46z"/>
<path d="M9681 2944 c0 -11 3 -14 6 -6 3 7 2 16 -1 19 -3 4 -6 -2 -5 -13z"/>
<path d="M2163 2759 c-68 -13 -129 -44 -181 -93 -142 -133 -157 -408 -32 -566
130 -164 436 -174 591 -19 101 101 136 295 84 455 -58 176 -246 266 -462 223z
m193 -148 c75 -34 114 -117 114 -240 0 -88 -11 -135 -43 -182 -70 -104 -254
-107 -332 -6 -70 93 -73 271 -5 365 55 77 174 105 266 63z"/>
<path d="M3157 2756 c-51 -19 -97 -51 -129 -94 l-28 -35 0 66 0 67 -90 0 -90
0 0 -385 0 -385 90 0 90 0 0 245 c0 263 4 291 53 343 51 55 143 69 204 32 64
-39 68 -56 71 -352 l3 -268 85 0 85 0 -3 298 c-4 330 -5 335 -74 412 -57 63
-176 88 -267 56z"/>
<path d="M3908 2756 c-131 -35 -216 -154 -239 -336 -33 -269 114 -467 333
-447 79 7 162 49 196 98 15 21 31 38 36 39 12 0 1 -157 -14 -195 -36 -95 -105
-137 -235 -143 -89 -4 -122 4 -237 53 -16 6 -18 0 -18 -69 0 -89 -2 -87 120
-112 227 -46 432 23 506 168 48 95 54 152 54 566 l0 382 -85 0 -85 0 0 -57 0
-56 -46 46 c-70 71 -172 94 -286 63z m215 -140 c43 -17 93 -76 106 -123 16
-55 13 -181 -4 -239 -16 -54 -70 -115 -118 -133 -74 -28 -174 -1 -217 59 -68
95 -66 282 3 372 18 22 48 49 67 59 41 22 117 25 163 5z"/>
<path d="M4883 2759 c-68 -13 -129 -44 -181 -93 -142 -133 -157 -408 -32 -566
130 -164 436 -174 591 -19 101 101 136 295 84 455 -58 176 -246 266 -462 223z
m193 -148 c75 -34 114 -117 114 -240 0 -88 -11 -135 -43 -182 -70 -104 -254
-107 -332 -6 -70 93 -73 271 -5 365 55 77 174 105 266 63z"/>
<path d="M5793 2759 c-68 -13 -129 -44 -181 -93 -142 -133 -157 -408 -32 -566
130 -164 436 -174 591 -19 101 101 136 295 84 455 -58 176 -246 266 -462 223z
m193 -148 c75 -34 114 -117 114 -240 0 -88 -11 -135 -43 -182 -70 -104 -254
-107 -332 -6 -70 93 -73 271 -5 365 55 77 174 105 266 63z"/>
<path d="M6600 2755 c-109 -31 -180 -100 -188 -185 -12 -131 35 -188 218 -260
107 -42 125 -54 140 -90 19 -46 -1 -85 -56 -106 -63 -24 -172 -15 -247 19
l-58 26 3 -77 3 -77 70 -18 c52 -14 93 -17 160 -14 196 10 300 92 299 234 -1
109 -52 159 -233 231 -104 41 -131 63 -131 109 0 42 37 80 87 89 54 10 145 -2
191 -25 23 -12 44 -21 47 -21 3 0 5 33 5 73 l0 74 -37 12 c-63 20 -211 23
-273 6z"/>
<path d="M7313 2750 c-82 -27 -161 -99 -202 -183 -106 -218 -21 -506 167 -572
104 -36 268 -29 374 17 l48 20 0 69 c0 38 -3 69 -6 69 -4 0 -21 -9 -39 -20
-17 -11 -60 -27 -95 -36 -171 -44 -320 46 -320 194 l0 22 261 0 262 0 -6 93
c-9 161 -64 260 -173 313 -76 37 -183 43 -271 14z m197 -128 c41 -21 80 -90
80 -139 l0 -33 -176 0 -176 0 7 33 c13 60 64 126 115 146 40 16 112 13 150 -7z"/>
<path d="M9766 2691 c-4 -5 -2 -20 3 -33 9 -21 9 -20 8 9 -2 36 -3 38 -11 24z"/>
<path d="M9803 2440 c0 -41 2 -58 4 -37 2 20 2 54 0 75 -2 20 -4 3 -4 -38z"/>
<path d="M9790 2350 c0 -5 0 -13 1 -16 0 -4 -5 -10 -13 -15 -9 -6 -10 -11 -1
-20 8 -8 7 -18 -5 -38 -10 -19 -13 -36 -7 -57 7 -26 8 -27 15 -9 12 28 12 37
0 30 -5 -3 -10 -1 -10 4 0 6 4 11 10 11 5 0 7 7 4 15 -4 8 -2 15 4 15 5 0 10
20 10 45 1 25 -1 45 -3 45 -3 0 -5 -4 -5 -10z"/>
<path d="M9327 2093 c-5 -170 -4 -259 3 -261 5 -2 10 -8 10 -13 0 -6 -4 -7
-10 -4 -13 8 -13 -66 0 -125 15 -64 30 -98 46 -104 17 -7 64 21 64 37 0 5 -8
3 -18 -6 -17 -15 -18 -14 -18 16 0 30 2 32 41 34 32 1 36 -1 18 -8 -22 -8 -32
-29 -15 -29 7 0 123 123 163 174 11 14 17 31 13 37 -4 7 -3 9 3 6 12 -7 66 87
56 97 -3 3 -2 6 4 6 13 0 66 120 57 129 -3 3 -14 -4 -24 -16 -16 -20 -28 -23
-89 -23 -55 0 -71 -3 -71 -14 0 -8 6 -16 13 -19 7 -2 8 -8 3 -13 -5 -5 -11 -4
-13 4 -3 8 -32 12 -98 12 l-94 0 -4 38 -4 37 -1 -37 c-1 -21 -6 -38 -11 -38
-6 0 -10 71 -10 167 -1 92 -3 168 -5 170 -1 2 -6 -113 -9 -254z m373 -115 c0
-5 -4 -7 -9 -3 -11 6 -26 -32 -23 -55 2 -9 0 -11 -5 -5 -14 18 -52 35 -78 35
-14 0 -25 5 -25 11 0 5 12 9 28 8 50 -4 62 0 55 18 -4 10 -2 14 5 9 6 -3 14
-2 17 4 8 12 35 -5 35 -22z m-220 -33 c0 -10 -11 -15 -35 -15 -19 0 -44 -5
-54 -12 -11 -7 -26 -8 -37 -3 -16 8 -14 10 14 13 19 2 32 9 32 18 0 10 12 14
40 14 29 0 40 -4 40 -15z m111 -119 c5 3 6 10 3 16 -4 7 -2 8 4 4 9 -5 7 -14
-4 -32 -18 -27 -26 -32 -18 -10 3 8 0 17 -5 21 -6 3 -8 12 -4 18 5 8 9 6 11
-6 2 -9 8 -15 13 -11z m-77 -71 c-4 -8 -8 -15 -10 -15 -2 0 -4 7 -4 15 0 8 4
15 10 15 5 0 7 -7 4 -15z m6 -35 c-17 -22 -34 -40 -37 -40 -3 0 0 6 6 14 8 10
9 16 1 19 -6 3 -5 4 2 3 7 -1 21 8 31 21 10 13 21 23 24 23 2 0 -10 -18 -27
-40z m-129 -33 c-10 -9 -11 -8 -5 6 3 10 9 15 12 12 3 -3 0 -11 -7 -18z m3
-83 c3 -8 2 -12 -4 -9 -6 3 -10 10 -10 16 0 14 7 11 14 -7z"/>
<path d="M9662 1975 c-17 -37 -14 -45 4 -12 9 16 14 31 11 33 -2 2 -9 -7 -15
-21z"/>
<path d="M9352 2280 c0 -19 2 -27 5 -17 2 9 2 25 0 35 -3 9 -5 1 -5 -18z"/>
<path d="M9750 2279 c0 -5 5 -7 10 -4 6 3 10 8 10 11 0 2 -4 4 -10 4 -5 0 -10
-5 -10 -11z"/>
<path d="M9736 2245 c4 -8 8 -15 10 -15 2 0 4 7 4 15 0 8 -4 15 -10 15 -5 0
-7 -7 -4 -15z"/>
<path d="M9740 2205 c0 -12 6 -27 13 -34 10 -10 9 -12 -2 -9 -7 2 -16 -3 -19
-11 -3 -9 0 -11 8 -6 9 6 10 1 5 -16 -4 -13 -12 -25 -16 -27 -5 -2 -9 -8 -9
-13 0 -6 7 -6 19 0 26 14 33 63 16 103 -11 25 -14 28 -15 13z"/>
<path d="M9356 2133 c9 -52 14 -54 14 -5 0 23 -5 42 -10 42 -7 0 -8 -14 -4
-37z"/>
<path d="M9383 2080 c0 -25 2 -35 4 -22 2 12 2 32 0 45 -2 12 -4 2 -4 -23z"/>
<path d="M9060 1761 c0 -6 4 -13 10 -16 6 -3 7 1 4 9 -7 18 -14 21 -14 7z"/>
<path d="M9425 1652 c-10 -7 -18 -32 -10 -32 2 0 9 9 15 20 12 22 11 24 -5 12z"/>
</g>
</svg>
